# xmcd
#
# Track frame offsets: 
#        150
#        16253
#        30520
#
# Disc length: 647 seconds
#
# Revision: 1
# Processed by: cddbd v1.5.2PL0 Copyright (c) Steve Scherf et al.
# Submitted via: ExactAudioCopyFreeDBPlugin 1.0
#
DISCID=15028503
DTITLE=Matthias Reim - Verdammt, ich lieb' Dich ...immer noch
DYEAR=1999
DGENRE=Schlager
TTITLE0=Verdammt, ich lieb' Dich ...immer noch
TTITLE1=Hitmix
TTITLE2=Ironic (?) Mix
EXTD=
EXTT0=
EXTT1=
EXTT2=
PLAYORDER=
